<mxfile host="app.diagrams.net" modified="2024-04-25T09:19:43.887Z" agent="Mozilla/5.0 (Windows NT 10.0; Win64; x64) AppleWebKit/537.36 (KHTML, like Gecko) Chrome/124.0.0.0 Safari/537.36" etag="J_6pIEoJktN4pUkVcCat" version="24.3.0" type="github">
  <diagram id="C5RBs43oDa-KdzZeNtuy" name="Page-1">
    <mxGraphModel dx="781" dy="423" grid="1" gridSize="10" guides="1" tooltips="1" connect="1" arrows="1" fold="1" page="1" pageScale="1" pageWidth="1169" pageHeight="827" math="0" shadow="0">
      <root>
        <mxCell id="WIyWlLk6GJQsqaUBKTNV-0" />
        <mxCell id="WIyWlLk6GJQsqaUBKTNV-1" parent="WIyWlLk6GJQsqaUBKTNV-0" />
        <mxCell id="LLCsSia3MjpJeiBKYf-Y-110" style="edgeStyle=none;rounded=0;orthogonalLoop=1;jettySize=auto;html=1;exitX=1;exitY=0;exitDx=0;exitDy=10;exitPerimeter=0;fontFamily=Verdana;fontSize=9;" edge="1" parent="WIyWlLk6GJQsqaUBKTNV-1" source="LLCsSia3MjpJeiBKYf-Y-80" target="LLCsSia3MjpJeiBKYf-Y-107">
          <mxGeometry relative="1" as="geometry" />
        </mxCell>
        <mxCell id="LLCsSia3MjpJeiBKYf-Y-80" value="&lt;font style=&quot;font-size: 9px;&quot;&gt;sigmoÃ¯de(w1.x1+w2.x2+w3.x3)&lt;/font&gt;" style="shadow=0;dashed=0;align=center;html=1;strokeWidth=1;shape=mxgraph.electrical.logic_gates.dual_inline_ic;labelNames=a,b,c,d,e,f,g,h,i,j,k,l,m,n,o,p,q,r,s,t;whiteSpace=wrap;fontFamily=Verdana;fontSize=9;" vertex="1" parent="WIyWlLk6GJQsqaUBKTNV-1">
          <mxGeometry x="226.67" y="330" width="213.33" height="70" as="geometry" />
        </mxCell>
        <mxCell id="LLCsSia3MjpJeiBKYf-Y-87" value="" style="shape=table;startSize=0;container=1;collapsible=0;childLayout=tableLayout;fontFamily=Verdana;fontSize=9;" vertex="1" parent="WIyWlLk6GJQsqaUBKTNV-1">
          <mxGeometry x="110" y="330" width="40" height="80" as="geometry" />
        </mxCell>
        <mxCell id="LLCsSia3MjpJeiBKYf-Y-88" value="" style="shape=tableRow;horizontal=0;startSize=0;swimlaneHead=0;swimlaneBody=0;strokeColor=inherit;top=0;left=0;bottom=0;right=0;collapsible=0;dropTarget=0;fillColor=none;points=[[0,0.5],[1,0.5]];portConstraint=eastwest;fontFamily=Verdana;fontSize=9;" vertex="1" parent="LLCsSia3MjpJeiBKYf-Y-87">
          <mxGeometry width="40" height="27" as="geometry" />
        </mxCell>
        <mxCell id="LLCsSia3MjpJeiBKYf-Y-89" value="x1" style="shape=partialRectangle;html=1;whiteSpace=wrap;connectable=0;strokeColor=inherit;overflow=hidden;fillColor=none;top=0;left=0;bottom=0;right=0;pointerEvents=1;fontFamily=Verdana;fontSize=9;" vertex="1" parent="LLCsSia3MjpJeiBKYf-Y-88">
          <mxGeometry width="40" height="27" as="geometry">
            <mxRectangle width="40" height="27" as="alternateBounds" />
          </mxGeometry>
        </mxCell>
        <mxCell id="LLCsSia3MjpJeiBKYf-Y-90" value="" style="shape=tableRow;horizontal=0;startSize=0;swimlaneHead=0;swimlaneBody=0;strokeColor=inherit;top=0;left=0;bottom=0;right=0;collapsible=0;dropTarget=0;fillColor=none;points=[[0,0.5],[1,0.5]];portConstraint=eastwest;fontFamily=Verdana;fontSize=9;" vertex="1" parent="LLCsSia3MjpJeiBKYf-Y-87">
          <mxGeometry y="27" width="40" height="26" as="geometry" />
        </mxCell>
        <mxCell id="LLCsSia3MjpJeiBKYf-Y-91" value="x2" style="shape=partialRectangle;html=1;whiteSpace=wrap;connectable=0;strokeColor=inherit;overflow=hidden;fillColor=none;top=0;left=0;bottom=0;right=0;pointerEvents=1;fontFamily=Verdana;fontSize=9;" vertex="1" parent="LLCsSia3MjpJeiBKYf-Y-90">
          <mxGeometry width="40" height="26" as="geometry">
            <mxRectangle width="40" height="26" as="alternateBounds" />
          </mxGeometry>
        </mxCell>
        <mxCell id="LLCsSia3MjpJeiBKYf-Y-92" value="" style="shape=tableRow;horizontal=0;startSize=0;swimlaneHead=0;swimlaneBody=0;strokeColor=inherit;top=0;left=0;bottom=0;right=0;collapsible=0;dropTarget=0;fillColor=none;points=[[0,0.5],[1,0.5]];portConstraint=eastwest;fontFamily=Verdana;fontSize=9;" vertex="1" parent="LLCsSia3MjpJeiBKYf-Y-87">
          <mxGeometry y="53" width="40" height="27" as="geometry" />
        </mxCell>
        <mxCell id="LLCsSia3MjpJeiBKYf-Y-93" value="x3" style="shape=partialRectangle;html=1;whiteSpace=wrap;connectable=0;strokeColor=inherit;overflow=hidden;fillColor=none;top=0;left=0;bottom=0;right=0;pointerEvents=1;fontFamily=Verdana;fontSize=9;" vertex="1" parent="LLCsSia3MjpJeiBKYf-Y-92">
          <mxGeometry width="40" height="27" as="geometry">
            <mxRectangle width="40" height="27" as="alternateBounds" />
          </mxGeometry>
        </mxCell>
        <mxCell id="LLCsSia3MjpJeiBKYf-Y-101" style="edgeStyle=none;rounded=0;orthogonalLoop=1;jettySize=auto;html=1;entryX=0;entryY=0;entryDx=0;entryDy=10;entryPerimeter=0;fontFamily=Verdana;fontSize=9;" edge="1" parent="WIyWlLk6GJQsqaUBKTNV-1" source="LLCsSia3MjpJeiBKYf-Y-88" target="LLCsSia3MjpJeiBKYf-Y-80">
          <mxGeometry relative="1" as="geometry" />
        </mxCell>
        <mxCell id="LLCsSia3MjpJeiBKYf-Y-104" value="w1" style="edgeLabel;html=1;align=center;verticalAlign=middle;resizable=0;points=[];fontFamily=Verdana;fontSize=9;" vertex="1" connectable="0" parent="LLCsSia3MjpJeiBKYf-Y-101">
          <mxGeometry x="-0.0635" y="1" relative="1" as="geometry">
            <mxPoint x="-6" as="offset" />
          </mxGeometry>
        </mxCell>
        <mxCell id="LLCsSia3MjpJeiBKYf-Y-102" style="edgeStyle=none;rounded=0;orthogonalLoop=1;jettySize=auto;html=1;entryX=0;entryY=0;entryDx=0;entryDy=30;entryPerimeter=0;fontFamily=Verdana;fontSize=9;" edge="1" parent="WIyWlLk6GJQsqaUBKTNV-1" source="LLCsSia3MjpJeiBKYf-Y-90" target="LLCsSia3MjpJeiBKYf-Y-80">
          <mxGeometry relative="1" as="geometry" />
        </mxCell>
        <mxCell id="LLCsSia3MjpJeiBKYf-Y-105" value="w2" style="edgeLabel;html=1;align=center;verticalAlign=middle;resizable=0;points=[];fontFamily=Verdana;fontSize=9;" vertex="1" connectable="0" parent="LLCsSia3MjpJeiBKYf-Y-102">
          <mxGeometry x="-0.1352" y="2" relative="1" as="geometry">
            <mxPoint x="-3" as="offset" />
          </mxGeometry>
        </mxCell>
        <mxCell id="LLCsSia3MjpJeiBKYf-Y-103" style="edgeStyle=none;rounded=0;orthogonalLoop=1;jettySize=auto;html=1;entryX=0;entryY=0;entryDx=0;entryDy=50;entryPerimeter=0;fontFamily=Verdana;fontSize=9;" edge="1" parent="WIyWlLk6GJQsqaUBKTNV-1" source="LLCsSia3MjpJeiBKYf-Y-92" target="LLCsSia3MjpJeiBKYf-Y-80">
          <mxGeometry relative="1" as="geometry" />
        </mxCell>
        <mxCell id="LLCsSia3MjpJeiBKYf-Y-106" value="w3" style="edgeLabel;html=1;align=center;verticalAlign=middle;resizable=0;points=[];fontFamily=Verdana;fontSize=9;" vertex="1" connectable="0" parent="LLCsSia3MjpJeiBKYf-Y-103">
          <mxGeometry x="-0.1438" y="1" relative="1" as="geometry">
            <mxPoint x="-1" as="offset" />
          </mxGeometry>
        </mxCell>
        <mxCell id="LLCsSia3MjpJeiBKYf-Y-107" value="" style="shape=table;startSize=0;container=1;collapsible=0;childLayout=tableLayout;fontFamily=Verdana;fontSize=9;" vertex="1" parent="WIyWlLk6GJQsqaUBKTNV-1">
          <mxGeometry x="470" y="330" width="60" height="40" as="geometry" />
        </mxCell>
        <mxCell id="LLCsSia3MjpJeiBKYf-Y-108" value="" style="shape=tableRow;horizontal=0;startSize=0;swimlaneHead=0;swimlaneBody=0;strokeColor=inherit;top=0;left=0;bottom=0;right=0;collapsible=0;dropTarget=0;fillColor=none;points=[[0,0.5],[1,0.5]];portConstraint=eastwest;fontFamily=Verdana;fontSize=9;" vertex="1" parent="LLCsSia3MjpJeiBKYf-Y-107">
          <mxGeometry width="60" height="40" as="geometry" />
        </mxCell>
        <mxCell id="LLCsSia3MjpJeiBKYf-Y-109" value="y" style="shape=partialRectangle;html=1;whiteSpace=wrap;connectable=0;strokeColor=inherit;overflow=hidden;fillColor=none;top=0;left=0;bottom=0;right=0;pointerEvents=1;fontFamily=Verdana;fontSize=9;" vertex="1" parent="LLCsSia3MjpJeiBKYf-Y-108">
          <mxGeometry width="60" height="40" as="geometry">
            <mxRectangle width="60" height="40" as="alternateBounds" />
          </mxGeometry>
        </mxCell>
      </root>
    </mxGraphModel>
  </diagram>
</mxfile>
